<svg width="72" height="12" viewBox="0 0 72 12" fill="none" xmlns="http://www.w3.org/2000/svg">
<path d="M38.9456 5.64084C39.0216 6.17948 38.7176 6.65827 38.3376 7.13705C37.8815 7.73554 37.4255 8.33402 37.2735 9.11205C37.0455 10.0098 36.3614 10.2492 35.2974 9.89007C34.0053 9.47113 32.9412 8.81281 32.3332 7.73554C32.1812 7.37645 31.8012 7.07721 31.4972 6.83781C31.1171 6.53857 31.2691 5.76051 30.4331 5.88021C29.749 5.94006 29.6731 6.53858 29.293 6.95752C28.609 7.73555 27.849 8.45373 27.3929 9.35146C26.3289 11.3863 24.6568 11.506 22.9847 9.6507C21.6926 8.27418 20.4005 6.89764 19.3364 5.28173C17.8163 6.89764 16.3723 8.39386 14.9282 9.89007C13.7121 11.1469 11.888 11.2666 10.5959 10.0098C9.37983 8.81281 8.31577 7.49612 7.1757 6.17945C6.71967 5.64082 6.41566 5.58098 5.80762 6.11962C5.27559 6.59841 4.97157 7.25676 4.13552 7.556C2.91944 7.4363 3.07149 8.63328 2.08343 8.75297C1.93142 8.27418 1.8554 7.79537 1.01935 7.79537C1.47538 5.94007 2.99545 4.44386 4.13552 2.82795C4.89556 1.75067 7.09969 1.93021 8.31577 3.18703C9.60784 4.44385 10.5959 5.82039 11.736 7.13705C12.268 7.73554 12.4961 7.79537 13.1041 7.19689C14.4722 5.82037 15.7642 4.38402 17.0563 2.94765C17.4363 2.46886 17.8924 1.99008 18.6524 2.16963C19.6405 2.46887 21.1606 2.34916 21.5406 3.42643C21.8446 4.38401 22.7566 5.04233 23.2887 5.88021C24.0487 7.07718 24.8848 7.07719 25.7968 5.99992C26.5569 5.04234 27.6209 4.20447 28.153 3.12719C28.381 2.7681 28.685 2.40902 29.217 2.16963C29.9011 1.81054 30.5091 1.75066 31.1931 2.2893C32.3332 3.24687 33.4733 4.14463 33.7013 5.4613C33.7773 5.82039 34.0053 6.11961 34.4613 6.17945C34.9174 6.2393 34.9934 5.88023 35.2214 5.64084C36.2855 4.32417 36.9695 2.82793 38.4135 1.69081C38.2615 2.64839 38.7176 3.54612 39.2497 4.384C38.7936 4.74309 38.9456 5.2219 38.9456 5.64084Z" fill="#FDB74D"/>
<path d="M39.3258 4.44373C38.7937 3.60585 38.3377 2.70812 38.4897 1.75054C38.6417 1.2119 38.8697 0.792957 39.7058 0.733109C39.9338 1.03235 40.3898 0.972517 40.7699 0.972517C41.2259 1.15206 41.3019 1.51113 41.5299 1.81038C41.5299 2.16947 41.6818 2.40886 42.2139 2.40886C43.3539 2.76795 42.8979 3.90509 43.658 4.44373C43.81 4.56342 43.81 4.9225 43.962 5.10205C44.418 5.76038 44.8741 5.82022 45.4821 5.28158C46.4702 4.4437 47.3062 3.546 48.2182 2.64827C48.9023 2.04978 49.4343 1.33161 50.4224 0.972517C51.1064 1.39146 51.7905 0.852798 52.5506 0.912647C52.9306 0.972495 53.1586 1.15203 53.3866 1.39143C53.4626 2.22931 54.1466 2.94749 54.2226 3.78537C54.2226 3.96492 54.6027 4.02478 54.8307 4.02478C55.0587 4.38387 55.3627 4.74298 55.5907 5.16192C55.5907 5.34146 55.5907 5.6407 55.9708 5.6407C56.1988 5.6407 56.2748 5.46113 56.3508 5.28158C56.5788 5.16189 56.8067 4.98237 57.0347 4.86267C57.9468 4.86267 58.8589 5.46114 59.923 4.50356C59.847 5.46114 59.0869 5.93995 59.3149 6.65813C58.7829 6.65813 58.2508 6.5384 57.7188 6.7778C58.0988 7.13689 58.1749 7.55584 58.2509 7.91494C58.2509 8.09448 58.1749 8.21419 58.0228 8.33388C57.5668 8.39373 57.4909 8.63313 57.4909 8.93237C55.6667 8.99222 54.6026 8.51342 53.9946 7.31645C53.6145 6.41872 52.7785 5.70052 52.7025 4.6831C52.6265 4.14446 51.7905 4.02476 51.2584 4.38386C50.5744 4.92249 49.9664 5.46116 49.2823 6.05965C48.2943 6.95737 47.3822 7.91493 46.2421 8.69296C45.7101 9.1119 45.2541 9.17174 44.6461 8.8725C43.658 8.39371 42.3659 8.09449 42.4419 6.83767C42.2899 6.23918 42.0619 5.76038 41.3778 5.40129H41.3019C41.3019 5.1619 41.2258 4.98237 40.9218 4.86267C40.6178 4.62328 40.2378 4.50356 39.7818 4.50356C39.5537 4.56341 39.4018 4.50358 39.3258 4.44373Z" fill="#FDB74D"/>
<path d="M57.7946 3.7854C57.8706 3.48616 57.9466 3.18694 58.2507 3.06724C58.7067 3.0074 58.9346 2.82783 58.9346 2.40889C59.2386 1.63086 59.6947 0.912696 60.4547 0.374059C61.2908 -0.224427 62.2029 -0.104744 62.5829 0.733136C63.2669 2.0498 64.787 3.00737 65.395 4.38388C65.623 4.92252 66.1551 4.86268 66.5351 4.50359C67.2191 3.84525 67.9032 3.18694 68.5113 2.46876C68.8913 1.98997 69.4993 1.63088 70.0314 1.27179C70.7914 0.792999 71.6274 1.03239 71.8554 1.75057C72.0834 2.6483 72.1595 3.42634 71.1714 4.26422C69.6513 5.46119 68.5872 7.01724 67.5232 8.51345C66.6871 9.59072 65.927 9.59072 65.015 8.51345C64.1029 7.37633 63.4189 6.17936 62.8869 4.92254C63.0389 4.32405 62.5829 3.72556 62.2029 3.30662C61.8228 2.76798 59.4667 3.12706 59.0867 3.7854C58.6307 4.68313 58.2506 4.20434 57.7946 3.7854Z" fill="#FDB74D"/>
<path d="M57.7945 3.78534C58.2506 4.20428 58.5546 4.68307 59.0867 3.78534C59.4667 3.12701 61.8228 2.76793 62.2028 3.30656C62.5069 3.7255 62.9629 4.324 62.8869 4.92248C62.7349 4.86263 62.5829 4.74292 62.4309 4.68307C61.6709 4.02474 61.4428 4.02476 60.9108 4.74294C60.3028 5.46113 59.6187 6.17931 58.9346 6.83764C58.7066 6.17931 59.4667 5.64065 59.5427 4.68307C58.5546 5.64065 57.5665 5.04219 56.6545 5.04219C56.8065 4.4437 57.1865 4.02474 57.7945 3.78534Z" fill="#FDB74D"/>
<path d="M1.17118 7.855C2.00723 7.855 2.08321 8.33378 2.23522 8.81257C3.22328 8.69287 3.07128 7.4959 4.28735 7.61559C4.36336 8.09438 4.13533 8.39364 3.75531 8.75273C3.22328 9.29137 2.61526 9.82998 2.15923 10.4883C1.70321 11.0868 1.09516 11.0868 0.487124 10.9073C-0.120912 10.7277 -0.0449073 10.1891 0.107102 9.77013C0.259111 9.05195 0.487143 8.39364 1.17118 7.855Z" fill="#FDB74D"/>
<path d="M54.6024 4.20418C54.3744 4.14433 53.9943 4.14435 53.9943 3.9648C53.9943 3.12692 53.2343 2.40874 53.1583 1.57086C54.4503 2.16935 54.2984 3.2466 54.6024 4.20418Z" fill="#FDB74D"/>
<path d="M52.3982 1.03225C51.7141 0.972402 51.0301 1.51102 50.2701 1.09208C51.2581 0.254205 51.5621 0.25422 52.3982 1.03225Z" fill="#FDB74D"/>
<path d="M58.0225 8.09463C57.9465 7.67569 57.8706 7.25677 57.4905 6.95753C58.0226 6.71814 58.5546 6.83783 59.0866 6.83783C59.0866 7.37646 58.5546 7.73554 58.0225 8.09463Z" fill="#FDB74D"/>
<path d="M41.2257 5.58075C41.9097 5.93984 42.1377 6.41864 42.2897 7.01713C41.1497 6.89743 41.2257 6.17924 41.2257 5.58075Z" fill="#FDB74D"/>
<path d="M51.5404 4.4514C51.6164 4.51125 51.7685 4.57108 51.8445 4.69077C51.8445 5.10971 51.7685 5.52866 51.1604 5.70821C51.1604 5.22942 51.0084 4.75064 51.5404 4.4514Z" fill="#FDB74D"/>
<path d="M40.7695 1.03334C40.3895 1.03334 40.0095 1.0933 39.7054 0.793441C40.2375 0.433614 40.4655 0.673513 40.7695 1.03334Z" fill="#FDB74D"/>
<path d="M42.1376 2.4688C41.6815 2.40895 41.4535 2.22941 41.4535 1.87032C41.9095 1.93016 42.1376 2.10971 42.1376 2.4688Z" fill="#FDB74D"/>
<path d="M59.0107 2.40903C59.0107 2.76812 58.8587 3.00753 58.3267 3.06738C58.3267 2.70829 58.5547 2.52872 59.0107 2.40903Z" fill="#FDB74D"/>
<path d="M40.7697 5.04224C41.0738 5.16193 41.1498 5.34146 41.1498 5.58085C40.6937 5.58085 40.5417 5.34148 40.7697 5.04224Z" fill="#FDB74D"/>
<path d="M56.1224 5.46143C56.0464 5.64134 55.9704 5.82124 55.7424 5.82124C55.3624 5.82124 55.4384 5.52139 55.3624 5.34148C55.5904 5.34148 55.8184 5.40145 56.1224 5.46143Z" fill="#FDB74D"/>
<path d="M57.1863 9.05192C57.1863 8.75267 57.3383 8.51328 57.7183 8.45343C57.7183 8.75267 57.6424 9.05192 57.1863 9.05192Z" fill="#FDB74D"/>
</svg>
